<?xml version="1.0" encoding="utf-8"?>
<!-- Generator: Adobe Illustrator 24.1.0, SVG Export Plug-In . SVG Version: 6.00 Build 0)  -->
<svg version="1.1" xmlns="http://www.w3.org/2000/svg" xmlns:xlink="http://www.w3.org/1999/xlink" x="0px" y="0px"
	 viewBox="0 0 36 36" style="enable-background:new 0 0 36 36;" xml:space="preserve">
<style type="text/css">
	.st0{fill:#F7F1E3;}
	.st1{fill:#4C4637;}
	.st2{fill:#BFB9AC;}
	.st3{font-family:'MyriadPro-Regular';}
	.st4{font-size:6.7933px;}
	.st5{fill:none;}
	.st6{font-size:1.994px;}
	.st7{fill:#F6F6F6;}
	.st8{fill:#FFFFFF;}
	.st9{fill:#FFFFFF;stroke:#F7F1E3;stroke-miterlimit:10;}
</style>
<g id="Calque_7">
	<g>
		<rect x="5584.7" y="-1086.5" class="st0" width="2208" height="2208.5"/>
		<text transform="matrix(0.9998 0 0 1 5661.7539 -875.0367)" class="st1 st3" style="font-size:176.6767px;">TopLists</text>
		<g>
			<ellipse class="st1" cx="5713.9" cy="-557.5" rx="40.3" ry="40.3"/>
			<rect x="5791.4" y="-577.7" class="st1" width="1706.4" height="40.3"/>
		</g>
		<line class="st2" x1="5673.6" y1="-806.6" x2="7730.6" y2="-806.6"/>
		<g>
			<ellipse class="st1" cx="5713.9" cy="-403.9" rx="40.3" ry="40.3"/>
			<rect x="5791.4" y="-424.1" class="st1" width="1706.4" height="40.3"/>
		</g>
		<g>
			<ellipse class="st1" cx="5713.9" cy="-263.7" rx="40.3" ry="40.3"/>
			<rect x="5791.4" y="-283.9" class="st1" width="1282.8" height="40.3"/>
		</g>
		<text transform="matrix(0.9998 0 0 1 7112.5723 994.2377)" class="st2 st3" style="font-size:88.3383px;">by Joazco.com</text>
	</g>
</g>
<g id="Calque_8">
	<g>
		<g>
			<circle class="st1" cx="18.3" cy="18" r="16"/>
			<text transform="matrix(1 0 0 1 7.1828 12.4831)" class="st0 st3 st4">TopLists</text>
			<g>
				<ellipse class="st0" cx="5.1" cy="17.5" rx="0.6" ry="0.8"/>
				<rect x="6.3" y="17.1" class="st0" width="25.9" height="0.8"/>
			</g>
			<g>
				<ellipse class="st0" cx="5.1" cy="20.4" rx="0.6" ry="0.8"/>
				<rect x="6.3" y="20" class="st0" width="25.9" height="0.8"/>
			</g>
			<g>
				<ellipse class="st0" cx="5.2" cy="23.2" rx="0.7" ry="0.8"/>
				<rect x="6.4" y="22.8" class="st0" width="21" height="0.8"/>
			</g>
		</g>
		<rect x="13.2" y="30.1" class="st5" width="13" height="2.7"/>
		<text transform="matrix(0.9721 0 0 1 13.2199 31.5295)" class="st0 st3 st6">Joazco.com</text>
	</g>
</g>
<g id="Calque_1">
	<g>
		<g>
			<ellipse class="st1" cx="1032.2" cy="22.8" rx="478.8" ry="465.4"/>
			<text transform="matrix(1.0287 0 0 1 698.5908 -137.6959)" class="st0 st3" style="font-size:197.599px;">TopLists</text>
			<g>
				<ellipse class="st0" cx="637.3" cy="6.9" rx="18.3" ry="22.8"/>
				<rect x="672.5" y="-4.5" class="st0" width="775.3" height="22.8"/>
			</g>
			<g>
				<ellipse class="st0" cx="637.3" cy="93.7" rx="18.3" ry="22.8"/>
				<rect x="672.5" y="82.3" class="st0" width="775.3" height="22.8"/>
			</g>
			<g>
				<ellipse class="st0" cx="638.7" cy="172.8" rx="19.7" ry="22.8"/>
				<rect x="676.6" y="161.5" class="st0" width="627" height="22.8"/>
			</g>
		</g>
		<rect x="879.2" y="375.1" class="st5" width="389.7" height="77.5"/>
		<text transform="matrix(1 0 0 1 879.2401 416.312)" class="st0 st3" style="font-size:58px;">Joazco.com</text>
	</g>
</g>
<g id="Calque_5">
	<g>
		<rect x="1852.7" y="-1348" class="st0" width="2712.7" height="2732"/>
		<text transform="matrix(0.9929 0 0 1 1947.3611 -1086.4586)" class="st1 st3" style="font-size:218.56px;">TopLists</text>
		<g>
			<ellipse class="st1" cx="2011.5" cy="-693.7" rx="49.5" ry="49.9"/>
			<rect x="2106.6" y="-718.6" class="st1" width="2096.5" height="49.9"/>
		</g>
		<line class="st2" x1="1961.9" y1="-1001.8" x2="4489.1" y2="-1001.8"/>
		<g>
			<ellipse class="st1" cx="2011.5" cy="-503.7" rx="49.5" ry="49.9"/>
			<rect x="2106.6" y="-528.6" class="st1" width="2096.5" height="49.9"/>
		</g>
		<g>
			<ellipse class="st1" cx="2011.5" cy="-330.2" rx="49.5" ry="49.9"/>
			<rect x="2106.6" y="-355.2" class="st1" width="1576" height="49.9"/>
		</g>
		<text transform="matrix(0.9929 0 0 1 3729.8103 1225.9506)" class="st2 st3" style="font-size:109.28px;">by Joazco.com</text>
	</g>
</g>
<g id="Calque_2">
	<g>
		<rect x="162.7" y="-46" class="st7" width="128" height="128"/>
		<text transform="matrix(1 0 0 1 167.1866 -33.7476)" class="st1 st3" style="font-size:10.24px;">TopLists</text>
		<g>
			<circle class="st1" cx="170.2" cy="-15.3" r="2.3"/>
			<rect x="174.7" y="-16.5" class="st1" width="98.9" height="2.3"/>
		</g>
		<line class="st2" x1="167.9" y1="-29.8" x2="287.1" y2="-29.8"/>
		<g>
			<circle class="st1" cx="170.2" cy="-6.4" r="2.3"/>
			<rect x="174.7" y="-7.6" class="st1" width="98.9" height="2.3"/>
		</g>
		<g>
			<circle class="st1" cx="170.2" cy="1.7" r="2.3"/>
			<rect x="174.7" y="0.5" class="st1" width="74.4" height="2.3"/>
		</g>
		<text transform="matrix(1 0 0 1 251.2911 74.5942)" class="st2 st3" style="font-size:5.12px;">by Joazco.com</text>
	</g>
</g>
<g id="Calque_4">
	<g>
		<circle class="st8" cx="374.7" cy="17.4" r="61.2"/>
		<text transform="matrix(1 0 0 1 332.0533 -3.7563)" class="st1 st3" style="font-size:26px;">TopLists</text>
		<g>
			<ellipse class="st1" cx="324.2" cy="15.3" rx="2.3" ry="3"/>
			<rect x="328.7" y="13.8" class="st1" width="99.2" height="3"/>
		</g>
		<g>
			<ellipse class="st1" cx="324.2" cy="26.7" rx="2.3" ry="3"/>
			<rect x="328.7" y="25.2" class="st1" width="99.2" height="3"/>
		</g>
		<g>
			<ellipse class="st1" cx="324.4" cy="37.1" rx="2.5" ry="3"/>
			<rect x="329.2" y="35.6" class="st1" width="80.2" height="3"/>
		</g>
	</g>
</g>
<g id="Calque_6">
	<g>
		<circle class="st9" cx="4976.7" cy="17.8" r="61.2"/>
		<g>
			<ellipse class="st1" cx="4926.2" cy="4.7" rx="2.3" ry="3"/>
			<rect x="4930.7" y="3.2" class="st1" width="99.2" height="3"/>
		</g>
		<g>
			<ellipse class="st1" cx="4926.2" cy="16.1" rx="2.3" ry="3"/>
			<rect x="4930.7" y="14.6" class="st1" width="99.2" height="3"/>
		</g>
		<g>
			<ellipse class="st1" cx="4926.4" cy="26.5" rx="2.5" ry="3"/>
			<rect x="4931.2" y="25" class="st1" width="80.2" height="3"/>
		</g>
	</g>
</g>
<g id="Calque_3">
	<g>
		<rect x="86" y="-7" class="st0" width="50" height="50"/>
		<text transform="matrix(1 0 0 1 87.7444 -2.2134)" class="st1 st3" style="font-size:4px;">TopLists</text>
		<g>
			<circle class="st1" cx="88.9" cy="5" r="0.9"/>
			<rect x="90.7" y="4.5" class="st1" width="38.6" height="0.9"/>
		</g>
		<line class="st2" x1="88" y1="-0.7" x2="134.6" y2="-0.7"/>
		<g>
			<circle class="st1" cx="88.9" cy="8.5" r="0.9"/>
			<rect x="90.7" y="8" class="st1" width="38.6" height="0.9"/>
		</g>
		<g>
			<circle class="st1" cx="88.9" cy="11.6" r="0.9"/>
			<rect x="90.7" y="11.2" class="st1" width="29" height="0.9"/>
		</g>
		<text transform="matrix(1 0 0 1 120.5978 40.1072)" class="st2 st3" style="font-size:2px;">by Joazco.com</text>
	</g>
</g>
</svg>
